<svg aria-hidden="true" style="position: absolute; width: 0; height: 0; overflow: hidden;" version="1.1" xmlns="http://www.w3.org/2000/svg" xmlns:xlink="http://www.w3.org/1999/xlink">
<defs>
<symbol id="icon-cat-paw-prints-sharp" viewBox="0 0 36 32">
<path d="M4.173 24.027c1.463-1.673 4.618-1.506 5.711-3.441 0.6-1.062-0.401-2.508 0-3.661 0.245-0.706 0.724-1.421 1.391-1.757 1.984-1.001 4.081 0.099 6.296-0.073 1.594-0.124 3.635-1.311 5.125-0.732 1.226 0.477 2.258 1.722 2.563 3.002 0.285 1.198-0.659 3.368-0.659 3.661s1.164 2.295 2.563 3.075c0.836 0.466 2.541 0.113 3.002 0.952 0.71 1.291-0.411 2.357-1.098 3.661-0.352 0.667-1.304 1.929-1.977 2.27-1.558 0.789-3.465-0.875-5.198-0.659-1.457 0.182-2.632 1.621-4.1 1.611-1.609-0.012-2.858-1.877-4.466-1.83-1.353 0.040-2.32 1.94-3.661 1.757-2.828-0.386-5.816-2.854-6.443-5.637-0.175-0.778 0.426-1.596 0.952-2.196z"></path>
<path d="M6.662 14.179c0.439 3.851-1.63 4.796-3.551 4.796s-3.112-1.75-3.112-4.722c0-2.972 1.85-5.455 3.771-5.455s2.892 2.409 2.892 5.381z"></path>
<path d="M26.76 5.21c0.293 3.997-1.557 5.381-3.478 5.381s-3.917-1.75-3.478-5.381c0.357-2.95 1.557-4.649 3.478-4.649s3.478 1.677 3.478 4.649z"></path>
<path d="M35.912 14.536c0 2.716-1.338 4.124-3.258 4.182-4.41 0.134-3.112-3.206-3.112-5.922s1.044-4.182 2.965-4.182 3.404 3.206 3.404 5.922z"></path>
<path d="M16.306 4.938c0.293 4.2-1.557 5.655-3.478 5.655s-3.917-1.839-3.478-5.655c0.357-3.1 1.411-4.424 3.478-4.885 1.879-0.42 3.478 1.762 3.478 4.885z"></path>
</symbol>
</defs>
</svg>
